<?xml version="1.0" standalone="no"?>
<!DOCTYPE svg PUBLIC "-//W3C//DTD SVG 20010904//EN"
 "http://www.w3.org/TR/2001/REC-SVG-20010904/DTD/svg10.dtd">
<svg version="1.0" xmlns="http://www.w3.org/2000/svg"
 width="600.000000pt" height="600.000000pt" viewBox="0 0 600.000000 600.000000"
 preserveAspectRatio="xMidYMid meet">
<metadata>
Created by potrace 1.14, written by Peter Selinger 2001-2017
</metadata>
<g transform="translate(0.000000,600.000000) scale(0.100000,-0.100000)"
fill="#fff" stroke="none">
<path d="M4421 4691 c-7 -11 -9 -21 -6 -21 3 0 -11 -26 -31 -57 -20 -32 -48
-78 -62 -103 -26 -46 -57 -80 -75 -80 -6 0 -7 -3 -4 -6 7 -7 -43 -107 -55
-112 -5 -2 -8 -8 -8 -14 0 -20 -50 -118 -60 -118 -6 0 -10 6 -10 13 0 6 -6 3
-13 -9 -41 -69 -108 -164 -117 -164 -5 0 -10 -5 -10 -10 0 -17 -44 -80 -57
-80 -6 0 -14 -9 -18 -20 -3 -11 -19 -32 -36 -47 -16 -15 -29 -34 -29 -40 0 -7
-5 -13 -10 -13 -6 0 -13 -7 -17 -16 -7 -18 -76 -89 -117 -119 -14 -11 -26 -25
-26 -32 0 -7 -6 -13 -14 -13 -7 0 -19 -7 -26 -16 -8 -8 -21 -19 -31 -25 -16
-8 -18 -4 -15 38 2 27 7 56 11 65 3 9 8 23 9 32 1 8 5 19 9 22 4 4 7 14 7 23
0 9 7 29 15 45 8 15 15 34 15 41 0 7 3 15 8 17 4 2 19 28 33 58 70 146 96 192
149 266 32 43 65 87 74 97 9 9 16 20 16 25 1 4 21 23 46 42 130 100 149 153
71 194 -18 9 -45 24 -62 34 -16 10 -35 18 -42 17 -15 0 -43 -25 -63 -55 -26
-40 -92 -125 -106 -136 -18 -14 -137 -214 -172 -286 -21 -44 -31 -56 -44 -52
-10 3 -18 1 -18 -5 0 -10 -29 -47 -67 -86 -9 -9 -9 -15 0 -25 9 -10 9 -12 -5
-7 -24 8 -50 -25 -44 -58 4 -22 3 -25 -10 -15 -11 10 -21 5 -50 -26 -20 -22
-48 -55 -63 -75 -15 -20 -59 -67 -99 -104 -39 -37 -74 -76 -77 -86 -10 -31
-135 -85 -135 -59 0 15 45 115 55 122 5 4 6 8 1 8 -5 0 -3 7 4 15 7 8 9 15 6
15 -8 0 30 73 56 109 10 13 15 27 12 32 -3 5 -1 9 4 9 4 0 19 23 31 50 12 28
27 50 32 50 6 0 8 4 5 9 -3 4 11 33 32 62 21 30 38 58 39 62 0 5 15 30 34 55
18 26 55 81 83 122 27 41 55 78 60 82 6 4 8 8 4 8 -4 0 5 19 21 42 36 52 28
84 -30 122 -21 15 -39 30 -39 35 0 5 -12 11 -26 14 -27 5 -156 -54 -223 -102
-16 -12 -32 -21 -36 -21 -23 0 -189 -156 -279 -261 -55 -66 -125 -139 -132
-139 -9 0 24 49 56 84 44 47 171 347 150 354 -5 2 -10 10 -10 17 0 13 -50 51
-50 38 0 -5 -4 -3 -8 2 -11 15 -85 51 -102 50 -8 -1 -23 -3 -32 -3 -13 -2 -18
-11 -18 -30 0 -16 3 -32 8 -36 9 -9 11 -66 2 -66 -4 0 -7 -6 -7 -12 0 -44 -99
-250 -143 -298 -29 -31 -90 -144 -90 -165 0 -5 -6 -16 -13 -24 -8 -9 -20 -32
-27 -51 -15 -37 -142 -266 -160 -287 -5 -7 -10 -16 -10 -20 0 -4 -20 -9 -45
-10 -28 -1 -45 2 -45 9 0 6 -3 9 -6 5 -4 -3 -19 0 -34 8 -20 10 -36 11 -66 3
-21 -5 -47 -10 -56 -11 -10 -1 -18 -4 -18 -8 0 -4 -17 -7 -37 -7 -68 0 -138
-7 -141 -15 -8 -18 5 -30 24 -23 15 7 71 10 100 7 4 -1 0 -8 -7 -17 -23 -28
-66 -40 -161 -45 -16 -1 -28 -6 -28 -10 0 -4 -8 -8 -17 -7 -10 0 -36 -3 -58
-6 -83 -14 -86 -14 -81 1 3 8 6 17 6 19 0 2 7 4 16 4 8 0 12 5 9 10 -4 6 -1
17 5 25 9 10 9 15 1 15 -6 0 3 21 19 47 17 26 30 51 30 55 0 5 14 27 30 50 16
22 30 44 30 48 0 4 20 41 45 82 25 42 45 80 45 87 0 6 3 11 8 11 4 0 16 17 27
37 11 20 30 49 43 64 22 27 21 59 -1 55 -15 -2 -65 -36 -53 -36 4 0 -2 -9 -15
-20 -13 -10 -20 -19 -16 -20 4 0 3 -6 -3 -12 -17 -21 -53 -78 -90 -143 -19
-33 -37 -61 -42 -63 -4 -2 -8 -9 -8 -16 0 -7 -12 -26 -27 -42 -15 -16 -26 -31
-26 -34 2 -10 -40 -85 -51 -92 -6 -4 -7 -8 -2 -8 4 0 -3 -15 -16 -32 -14 -18
-28 -43 -32 -55 -5 -14 -15 -23 -28 -23 -15 0 -19 -5 -15 -20 3 -13 0 -20 -9
-21 -55 -5 -69 -3 -69 11 0 9 10 14 27 15 37 0 44 11 23 35 -11 12 -26 18 -39
15 -61 -12 -70 -15 -75 -23 -3 -5 -15 -6 -26 -2 -23 8 -75 -7 -75 -22 0 -7 -4
-7 -12 0 -11 8 -75 9 -85 1 -6 -4 -24 -7 -53 -8 -27 -1 -30 -3 -20 -21 6 -11
7 -20 2 -20 -6 0 -12 9 -15 20 -5 20 -27 28 -27 10 0 -5 -13 -10 -30 -10 -31
0 -41 -16 -15 -26 8 -4 15 -16 14 -28 0 -21 0 -21 -9 -1 -15 38 -36 47 -92 40
-29 -3 -68 -13 -86 -21 -18 -8 -37 -12 -43 -9 -5 4 -15 2 -22 -3 -7 -6 -25
-12 -42 -15 -16 -3 -48 -12 -70 -20 -22 -8 -46 -12 -52 -10 -7 3 -13 1 -13 -4
0 -5 -22 -15 -50 -22 -27 -7 -50 -17 -50 -23 0 -5 -4 -7 -9 -4 -10 7 -95 -71
-110 -101 -7 -13 -8 -23 -4 -23 4 0 8 -17 9 -37 1 -51 8 -74 41 -141 56 -113
170 -196 214 -156 9 8 16 23 14 32 -2 9 -4 20 -4 25 -1 4 -7 7 -13 7 -22 0
-158 156 -158 180 0 9 135 100 148 100 6 0 32 9 58 20 26 11 54 22 63 24 9 2
23 6 31 9 34 14 159 47 186 50 17 2 34 6 39 9 14 8 83 20 123 21 17 1 32 5 32
10 0 4 5 5 10 2 6 -3 16 -3 22 1 7 5 19 9 28 10 15 2 30 4 145 23 101 16 135
19 135 11 0 -14 -27 -60 -32 -55 -2 3 -5 -1 -5 -9 0 -25 -32 -84 -50 -90 -12
-5 -14 -9 -6 -14 9 -6 -1 -33 -32 -95 -25 -48 -45 -89 -45 -92 0 -7 -57 -133
-80 -178 -11 -22 -20 -46 -20 -55 0 -8 -8 -24 -17 -34 -9 -11 -18 -26 -19 -34
-1 -9 -14 -40 -28 -70 -32 -67 -32 -69 0 -72 14 -1 23 2 19 8 -3 6 -2 10 4 10
6 0 13 11 17 25 10 42 41 95 50 87 5 -4 6 -3 2 2 -4 5 -3 17 3 27 7 14 6 19
-3 19 -9 1 -9 4 2 13 9 7 24 32 35 57 11 25 27 52 36 60 12 11 14 21 8 32 -6
11 -5 19 1 23 6 4 8 10 5 15 -3 5 3 15 15 22 11 7 20 21 20 31 0 10 5 15 10
12 6 -3 10 2 10 12 0 10 7 31 15 47 8 15 15 35 15 42 0 8 3 14 8 14 4 0 16 21
26 48 10 26 33 72 51 102 18 30 36 64 39 76 8 28 39 42 106 48 30 3 82 10 115
16 33 5 69 10 80 10 17 -1 16 -3 -7 -18 -16 -9 -28 -23 -28 -30 0 -7 -5 -10
-10 -7 -5 3 -10 -3 -10 -14 0 -10 -3 -21 -8 -23 -15 -6 -192 -301 -197 -328
-6 -33 -49 -103 -66 -107 -14 -4 -17 -8 -9 -13 10 -6 9 -15 -3 -36 -9 -16 -32
-65 -52 -109 -20 -44 -60 -129 -89 -190 -92 -192 -100 -210 -98 -217 1 -5 -2
-8 -6 -8 -4 0 -8 -10 -9 -22 -1 -11 -8 -25 -15 -29 -9 -6 -8 -12 5 -27 9 -10
17 -22 17 -26 0 -16 30 -36 55 -36 22 0 30 8 51 58 49 112 98 191 152 247 6 8
12 16 12 19 0 6 9 17 60 75 16 19 30 40 30 47 0 8 4 14 8 14 5 0 23 19 40 43
17 23 52 65 78 92 26 28 47 53 46 58 -1 4 5 7 13 7 8 0 15 5 15 10 0 6 5 10
11 10 12 0 38 29 39 42 0 9 -21 4 -57 -15 -36 -19 -120 -101 -177 -173 -22
-27 -45 -53 -51 -59 -6 -5 -20 -22 -29 -37 -28 -43 -37 -33 -14 14 11 23 21
48 22 55 1 8 9 22 17 32 24 29 74 138 71 154 -1 4 3 7 10 7 6 0 8 3 5 6 -4 4
2 19 13 34 11 16 20 33 20 38 0 6 6 17 13 24 7 7 24 37 37 66 13 28 28 52 33
52 6 0 8 3 4 6 -3 3 5 18 19 32 13 15 24 32 24 39 0 7 4 13 8 13 4 0 15 12 25
28 9 15 37 50 62 77 25 28 45 53 45 58 0 4 5 7 11 7 6 0 26 16 45 36 19 20 34
33 34 29 0 -4 7 -2 16 6 18 14 154 21 154 7 0 -5 8 -4 19 1 10 6 21 7 25 4 9
-10 126 -12 126 -2 0 4 7 6 15 3 10 -4 25 11 47 47 18 29 32 56 30 61 -1 4 2
8 8 8 5 0 10 4 10 10 0 13 68 111 89 128 8 6 11 12 6 12 -4 0 11 18 33 41 23
22 42 43 42 45 0 3 6 11 13 19 6 7 21 25 32 41 11 15 52 60 91 100 40 40 70
75 67 78 -2 2 4 7 14 11 10 3 38 31 63 62 25 30 51 62 58 69 7 8 11 14 8 14
-8 0 28 43 87 103 26 28 47 54 47 58 0 5 3 8 8 7 14 -5 92 46 97 62 6 18 45
58 45 47 0 -16 -73 -137 -83 -137 -5 0 -8 -3 -5 -6 4 -3 -16 -41 -43 -85 -27
-43 -49 -83 -49 -89 0 -5 -4 -10 -8 -10 -8 0 -37 -52 -61 -110 -11 -26 -32
-61 -41 -70 -18 -17 -134 -270 -134 -292 -1 -16 -4 -28 -8 -28 -5 0 -8 -22 -8
-49 0 -38 6 -56 25 -79 14 -17 25 -34 25 -39 0 -11 37 -43 49 -43 5 0 11 -4
13 -10 2 -5 14 -11 28 -14 14 -2 25 -5 25 -6 0 -1 18 -3 39 -4 46 -3 102 22
137 58 13 14 29 26 35 26 30 0 224 230 224 265 0 13 6 28 14 35 12 9 15 8 13
-9 -1 -12 -4 -21 -7 -21 -8 0 -13 -43 -13 -110 0 -129 105 -221 197 -173 59
31 170 131 239 217 17 22 40 48 49 58 15 15 16 22 6 43 -10 22 -8 28 16 50 22
20 25 28 17 44 -8 14 -7 22 4 31 12 10 15 10 15 -1 0 -11 2 -11 10 1 6 9 5 17
-2 21 -8 5 -6 12 4 23 14 13 18 13 28 1 9 -10 6 -26 -14 -70 -14 -30 -26 -62
-26 -70 0 -7 -4 -17 -10 -20 -5 -3 -10 -15 -10 -25 0 -11 -10 -28 -22 -40 -12
-11 -18 -20 -14 -20 4 0 0 -7 -8 -16 -9 -8 -16 -22 -16 -30 0 -8 -3 -14 -7
-14 -5 0 -17 -19 -28 -43 -11 -23 -30 -59 -42 -79 -13 -21 -20 -38 -16 -38 14
0 -60 -42 -81 -46 -11 -2 -23 -9 -28 -16 -4 -7 -8 -10 -8 -6 0 4 -17 0 -37 -9
-21 -8 -49 -20 -63 -26 -14 -6 -28 -10 -32 -9 -5 1 -8 -2 -8 -6 0 -7 -46 -26
-90 -37 -36 -9 -96 -30 -100 -35 -3 -3 -40 -17 -82 -31 -43 -13 -78 -28 -78
-32 0 -5 -4 -6 -9 -3 -5 4 -21 2 -35 -4 -26 -10 -190 -46 -254 -56 -31 -5 -32
-4 -27 19 4 15 -1 37 -13 58 -15 28 -25 34 -55 36 -31 2 -40 -3 -53 -25 -9
-15 -26 -40 -36 -55 -49 -71 -126 -239 -133 -288 -7 -49 -5 -55 19 -75 30 -27
31 -30 11 -50 -16 -17 -21 -54 -6 -54 5 0 16 11 25 25 9 14 13 25 10 25 -4 0
7 14 24 30 18 17 36 30 41 30 5 0 22 5 38 11 15 6 30 10 33 10 3 0 14 6 26 14
21 13 40 9 39 -10 -1 -13 -34 -63 -62 -94 -12 -13 -30 -39 -40 -58 -9 -18 -21
-33 -26 -33 -4 0 -5 -4 -2 -10 3 -5 1 -10 -5 -10 -6 0 -18 -15 -26 -32 -8 -18
-20 -42 -27 -53 -40 -66 -48 -74 -65 -68 -16 6 -16 6 0 -11 16 -16 17 -20 3
-47 -16 -29 -36 -80 -37 -89 0 -3 -4 -13 -9 -22 -14 -26 -14 -144 0 -170 6
-13 23 -28 37 -35 22 -10 28 -8 59 25 19 21 35 43 35 50 0 6 5 12 10 12 6 0
10 7 10 15 0 8 4 15 8 15 5 0 13 10 19 23 11 25 41 62 89 113 17 18 29 36 26
39 -3 3 1 5 8 5 7 0 11 3 7 6 -3 4 20 33 52 65 32 33 55 62 52 65 -3 4 4 3 17
-1 13 -4 41 -8 63 -10 23 -2 43 -6 46 -9 4 -3 12 -1 18 4 32 27 18 -40 -26
-123 -5 -10 -7 -22 -4 -27 4 -6 2 -10 -2 -10 -5 0 -9 -8 -10 -17 -1 -10 -4
-31 -8 -48 -4 -16 -8 -36 -8 -42 -1 -23 46 -103 60 -103 23 0 83 28 83 39 0 6
6 11 12 11 13 0 148 138 148 151 0 4 10 15 22 23 12 9 19 16 15 16 -4 0 10 18
32 40 21 22 44 40 50 40 14 0 14 17 1 25 -16 10 -12 35 5 35 28 0 28 -29 -1
-77 -15 -27 -27 -50 -25 -52 1 -2 -1 -7 -6 -10 -5 -3 -20 -35 -33 -71 -13 -36
-27 -67 -30 -70 -8 -6 -19 -44 -26 -87 -4 -25 0 -38 20 -58 37 -37 84 -33 77
8 -1 4 30 39 69 78 38 39 70 72 70 74 0 4 3 7 130 141 88 93 103 118 72 126
-19 5 -64 -31 -184 -144 -33 -32 -65 -58 -72 -58 -7 0 -7 3 -1 8 14 10 35 49
35 66 0 7 7 19 15 26 8 7 12 16 9 21 -3 5 -2 9 3 9 4 0 19 23 32 50 14 28 29
50 34 50 4 0 6 4 2 9 -3 5 -1 12 4 15 5 3 24 32 41 63 18 32 55 84 81 118 38
46 49 68 49 95 0 31 -5 37 -43 55 -23 11 -49 18 -58 17 -9 -2 -22 4 -29 13 -7
8 -19 15 -26 15 -8 0 -14 5 -14 10 0 6 5 10 11 10 5 0 7 5 4 10 -3 6 -2 10 3
10 9 0 48 55 61 85 2 5 9 15 15 21 34 35 81 90 81 94 0 13 46 80 55 80 5 0 10
7 10 15 0 8 14 40 31 71 17 30 29 57 26 60 -3 3 5 16 17 28 11 13 32 35 45 50
13 14 30 26 38 26 8 0 11 4 8 10 -3 6 1 7 9 4 9 -3 16 -2 16 4 0 5 8 12 18 15
9 2 26 8 37 12 11 3 8 -1 -7 -10 -16 -8 -28 -20 -28 -25 0 -6 -7 -10 -15 -10
-8 0 -15 -4 -15 -10 0 -16 27 -12 34 6 3 8 10 12 16 9 21 -13 45 30 41 73 -1
15 -31 16 -31 0 0 -6 -3 -9 -6 -6 -3 4 -17 0 -31 -7 -15 -8 -30 -12 -34 -9
-10 6 0 34 12 34 5 0 9 7 9 15 0 8 5 15 11 15 6 0 9 6 6 14 -3 8 12 50 34 95
21 45 39 86 39 91 0 6 5 10 10 10 6 0 10 7 10 15 0 8 4 15 8 15 4 0 14 17 21
38 8 20 18 40 24 44 6 3 12 17 14 29 2 13 8 26 13 29 5 3 17 26 28 50 18 40
29 57 74 110 7 8 12 16 10 18 -2 2 7 18 20 35 13 18 34 51 46 74 12 23 34 62
49 85 15 24 28 45 28 48 0 3 13 24 29 47 34 51 30 88 -12 106 -15 7 -28 19
-30 27 -5 23 -16 30 -54 37 -30 4 -38 2 -47 -16z m-888 -686 c-3 -9 -8 -14
-10 -11 -3 3 -2 9 2 15 9 16 15 13 8 -4z m-19 -50 c-6 -16 -24 -21 -24 -7 0
11 11 22 21 22 5 0 6 -7 3 -15z m-49 -126 c-3 -12 -7 -24 -10 -27 -3 -3 -3 5
-1 19 6 30 5 29 10 29 3 0 3 -10 1 -21z m-107 -39 c-7 -10 -14 -17 -17 -15 -4
4 18 35 25 35 2 0 -1 -9 -8 -20z m-40 -44 c-10 -7 -14 -17 -10 -21 4 -5 1 -5
-6 -1 -11 6 -10 12 5 26 10 9 20 15 23 13 3 -3 -3 -10 -12 -17z m-71 -80 c-24
-25 -47 -43 -50 -40 -4 4 15 26 40 50 60 57 68 49 10 -10z m-1877 -207 c0 -5
-9 -9 -20 -9 -25 0 -26 -16 -2 -29 15 -9 13 -11 -10 -12 -89 -4 -108 -3 -104
6 1 6 19 9 40 9 25 -1 36 3 36 13 0 10 -6 13 -17 9 -16 -5 -16 -5 -2 6 18 15
79 19 79 7z m-155 -49 c6 -10 5 -11 -32 -15 -23 -2 -29 5 -16 18 10 10 41 8
48 -3z m2672 4 c-3 -3 -12 -4 -19 -1 -8 3 -5 6 6 6 11 1 17 -2 13 -5z m-2753
-28 c-4 -9 -13 -15 -20 -12 -7 3 -16 1 -19 -4 -4 -6 -12 -10 -18 -10 -7 0 -4
6 5 14 10 7 15 16 11 20 -4 4 0 4 9 1 9 -4 19 -1 23 5 10 16 17 6 9 -14z
m2679 8 c3 -4 1 -16 -4 -27 -9 -15 -13 -17 -19 -7 -14 23 5 51 23 34z m-2763
-19 c-3 -5 -21 -10 -40 -11 -34 -3 -35 -3 -10 10 27 14 58 14 50 1z m-192 -36
c-30 -8 -32 -5 -17 22 11 22 12 22 26 3 13 -17 12 -20 -9 -25z m2887 3 c2 -13
-3 -25 -12 -30 -8 -5 -16 -13 -16 -18 -1 -5 -5 -8 -9 -7 -4 2 -15 -12 -25 -30
-17 -32 -19 -38 -22 -57 0 -5 -7 -10 -14 -10 -7 0 -23 -20 -35 -45 -16 -33
-18 -43 -7 -38 8 3 15 9 15 14 0 5 5 9 11 9 17 0 0 -62 -24 -87 -11 -13 -25
-23 -31 -23 -6 0 -3 7 6 14 10 7 14 17 10 21 -4 5 -1 5 6 1 6 -4 12 -2 12 3 0
19 -67 13 -76 -6 -4 -10 -6 -22 -5 -26 1 -5 -3 -6 -8 -3 -5 3 -11 -1 -15 -9
-3 -8 -14 -15 -24 -15 -19 0 -97 -62 -138 -110 -12 -14 -32 -36 -44 -50 -13
-14 -38 -49 -57 -77 -18 -29 -38 -53 -43 -53 -5 0 -7 -7 -4 -15 4 -8 1 -15 -7
-15 -7 0 -10 -3 -6 -6 3 -3 -6 -17 -19 -29 -22 -21 -29 -22 -52 -12 -25 11
-25 12 -5 15 25 4 38 31 23 46 -7 7 -10 6 -10 -4 0 -7 -3 -10 -7 -7 -3 4 -11
3 -17 -2 -6 -4 -19 -11 -28 -14 -15 -5 -16 -4 -5 13 6 11 15 20 19 20 5 0 8 7
8 15 0 19 -24 10 -71 -27 -46 -35 -54 -35 -89 3 -32 33 -35 24 28 94 12 14 20
25 17 25 -3 0 14 18 37 40 24 22 46 40 49 40 4 0 12 13 19 29 9 22 9 33 -1 48
-15 25 -93 46 -138 37 -28 -6 -32 -5 -25 7 20 32 10 37 -18 9 -16 -17 -38 -30
-49 -30 -10 0 -19 -5 -19 -11 0 -6 -9 -8 -20 -4 -11 3 -20 2 -20 -3 0 -5 -6
-9 -12 -9 -7 0 -23 -3 -35 -7 -22 -7 -22 -6 4 41 15 26 30 50 33 53 4 3 12 14
17 25 9 16 22 19 70 20 32 0 64 4 71 8 6 5 17 5 22 2 6 -3 10 -2 10 2 0 5 8 9
18 10 86 8 231 46 292 77 14 8 43 19 65 26 22 7 46 18 54 24 11 8 13 8 8 0 -4
-6 18 1 48 17 30 16 55 26 55 23 0 -3 12 2 28 10 15 8 52 26 82 39 30 13 66
28 80 34 28 12 39 6 45 -25z m-25 -142 c0 -5 -4 -10 -10 -10 -5 0 -10 5 -10
10 0 6 5 10 10 10 6 0 10 -4 10 -10z m-34 -56 c-3 -8 -10 -13 -16 -9 -6 4 -5
13 3 26 13 21 23 8 13 -17z m-19 -247 c7 -5 9 -16 5 -27 -8 -21 -112 -150
-122 -150 -3 0 -97 -91 -209 -202 -160 -158 -202 -195 -197 -172 4 16 17 37
29 47 17 13 18 16 4 11 -22 -8 -19 12 6 38 10 11 16 26 13 34 -3 8 -2 14 2 14
4 0 22 28 41 63 26 49 45 69 88 97 31 19 86 64 122 100 37 36 75 72 86 81 11
9 32 30 47 47 26 30 56 37 85 19z m-757 -293 c0 -11 -59 -61 -65 -56 -3 3 -5
0 -5 -6 0 -14 -153 -172 -166 -172 -5 0 0 7 10 15 11 8 17 18 13 21 -3 3 0 13
6 20 7 8 17 20 22 27 6 7 19 31 29 55 11 23 23 42 28 42 4 0 8 5 8 11 0 11 48
79 63 90 8 6 57 -35 57 -47z m613 3 c-10 -14 -26 -25 -37 -24 -16 1 -16 3 5
17 13 8 28 20 33 26 19 21 19 6 -1 -19z m-2050 -42 c-3 -9 -8 -14 -10 -11 -3
3 -2 9 2 15 9 16 15 13 8 -4z"/>
<path d="M4981 4339 c-7 -22 -21 -49 -31 -59 -10 -10 -26 -32 -34 -47 -8 -15
-30 -46 -50 -68 -20 -22 -34 -46 -31 -53 3 -7 1 -11 -4 -7 -5 3 -30 -14 -54
-37 -58 -55 -83 -77 -132 -113 -22 -16 -49 -37 -60 -48 -11 -10 -65 -47 -120
-82 -55 -35 -106 -69 -112 -75 -7 -6 -13 -8 -13 -5 0 4 -12 -3 -26 -14 -15
-11 -31 -18 -38 -14 -6 3 -8 3 -4 -2 4 -4 -7 -15 -25 -24 -22 -11 -33 -24 -35
-43 -3 -23 0 -26 18 -23 29 6 90 44 90 57 0 6 7 8 15 4 9 -3 20 5 29 22 9 15
15 23 16 17 0 -5 4 -4 9 3 4 7 19 14 32 14 13 1 56 22 94 47 39 25 73 44 78
43 6 -2 11 21 8 41 -1 4 10 12 24 17 14 5 25 13 25 18 0 4 13 15 29 25 32 19
181 165 181 178 0 10 45 56 60 61 5 1 12 14 15 27 6 30 25 52 38 44 5 -3 7 -1
3 5 -3 6 1 17 9 25 8 9 15 23 15 32 0 9 7 29 15 45 15 28 14 30 -3 30 -13 0
-22 -12 -31 -41z"/>
<path d="M1675 3533 c3 -8 5 -17 5 -19 0 -3 5 -2 10 1 16 10 12 32 -5 32 -10
0 -14 -6 -10 -14z"/>
<path d="M1720 3535 c0 -9 6 -12 15 -9 8 4 12 10 9 15 -8 14 -24 10 -24 -6z"/>
<path d="M1128 3299 c-8 -4 -23 -33 -33 -63 -11 -31 -23 -56 -27 -56 -4 0 -8
-4 -8 -10 0 -5 -11 -34 -25 -64 -14 -30 -25 -60 -25 -65 0 -6 -5 -11 -11 -11
-5 0 -8 -4 -4 -10 3 -5 1 -17 -4 -27 -9 -18 -57 -121 -93 -201 -11 -24 -24
-40 -30 -36 -7 4 -8 -2 -3 -17 18 -55 17 -55 7 -41 -7 11 -10 11 -15 -2 -4 -9
-5 -18 -4 -20 1 -2 -7 -13 -17 -25 -11 -12 -16 -21 -12 -21 4 0 -8 -24 -27
-52 -18 -29 -35 -56 -36 -60 -1 -4 -8 -23 -16 -42 -8 -20 -15 -44 -15 -55 0
-11 -8 -26 -17 -33 -10 -7 -18 -17 -19 -23 0 -5 -14 -39 -31 -75 -17 -36 -38
-85 -46 -110 -8 -25 -24 -65 -34 -90 -23 -56 -23 -55 10 -108 33 -51 65 -69
96 -53 11 6 20 15 20 19 -1 4 0 9 1 12 1 3 3 12 5 20 2 8 17 52 34 97 16 45
27 84 23 87 -3 3 0 6 6 6 6 0 13 13 17 30 4 16 11 32 16 35 5 4 9 13 9 20 0
13 37 101 61 147 5 10 9 24 9 32 0 8 3 16 8 18 6 3 31 55 64 136 7 17 17 32
21 32 5 0 5 5 2 10 -3 6 3 22 14 36 12 15 21 32 21 38 0 12 25 66 124 266 58
116 82 159 107 186 23 25 31 71 17 97 -17 33 -110 63 -140 46z"/>
<path d="M5272 3083 c-13 -5 -37 -51 -34 -65 1 -5 -2 -8 -8 -8 -5 0 -18 -17
-29 -37 -10 -21 -30 -51 -44 -67 -14 -16 -43 -64 -64 -107 -21 -43 -42 -78
-47 -79 -12 0 -43 -38 -68 -82 -12 -21 -25 -38 -29 -38 -5 0 -16 -16 -25 -35
-9 -20 -19 -33 -22 -30 -3 3 -16 -11 -29 -30 -13 -19 -28 -35 -33 -35 -6 0 -9
-4 -8 -9 4 -13 -118 -139 -160 -165 -14 -8 -13 18 1 79 14 56 137 307 162 330
6 6 24 28 40 50 16 22 56 67 91 100 51 49 61 64 54 80 -8 21 -40 53 -40 41 0
-4 -10 2 -22 14 -37 34 -59 27 -98 -30 -23 -34 -36 -50 -71 -88 -9 -9 -31 -44
-50 -77 -18 -33 -35 -62 -38 -65 -8 -6 -31 -55 -76 -153 -44 -99 -75 -204 -71
-239 2 -16 -2 -28 -8 -28 -6 0 -5 -4 2 -9 8 -4 14 -12 14 -17 1 -20 18 -50 42
-72 50 -46 107 -20 223 100 71 73 86 95 79 115 -4 9 1 24 10 34 9 10 14 25 11
34 -4 10 0 15 12 15 17 0 17 -4 -6 -62 -14 -35 -32 -70 -39 -79 -8 -9 -11 -19
-7 -22 3 -4 2 -7 -3 -7 -6 0 -21 -22 -35 -50 -13 -27 -27 -50 -31 -50 -5 0 -8
-6 -8 -14 0 -14 -78 -56 -103 -56 -7 0 -18 -5 -25 -12 -7 -7 -12 -8 -12 -3 0
4 -9 0 -20 -10 -11 -10 -20 -15 -20 -10 0 4 -6 3 -12 -2 -15 -12 -150 -58
-160 -55 -5 1 -8 -3 -8 -8 0 -5 -3 -9 -7 -9 -5 1 -10 0 -13 -1 -3 -1 -12 -3
-20 -5 -8 -2 -60 -16 -115 -30 -55 -14 -119 -28 -143 -30 -62 -6 -74 -15 -54
-40 18 -21 92 -31 92 -13 0 5 3 7 8 5 15 -10 222 39 255 60 6 4 14 8 17 9 3 0
18 6 33 12 16 7 32 12 36 12 7 0 74 29 178 76 35 16 63 18 63 5 0 -4 -11 -20
-25 -35 -14 -15 -28 -38 -31 -51 -3 -13 -13 -25 -22 -27 -8 -2 -16 -12 -17
-23 -2 -11 -6 -29 -10 -40 -7 -19 -7 -19 6 -2 14 18 15 17 16 -1 2 -20 -11
-23 -34 -9 -8 5 -13 4 -13 -2 0 -6 -6 -11 -14 -11 -9 0 -13 -9 -12 -24 2 -19
-1 -22 -18 -18 l-21 5 21 -19 c22 -20 21 -44 -2 -44 -8 0 -14 -4 -14 -9 0 -12
-68 -43 -79 -36 -10 6 -24 -11 -27 -33 -2 -8 -10 -22 -18 -31 -9 -10 -16 -24
-16 -33 0 -28 -70 -74 -97 -63 -13 4 -14 8 -5 17 24 24 5 34 -25 15 -7 -5 -13
-6 -13 -4 0 2 -18 1 -40 -3 -22 -4 -40 -3 -40 1 0 5 -7 9 -15 9 -18 0 -38 69
-39 136 0 31 8 66 21 92 11 23 19 42 16 42 -10 0 -63 -65 -63 -77 0 -7 -4 -13
-8 -13 -4 0 -8 -24 -9 -52 0 -29 -3 -63 -6 -75 -4 -15 5 -37 29 -70 19 -26 34
-43 34 -38 0 6 4 4 8 -3 5 -7 31 -18 58 -25 47 -12 87 -9 134 10 8 3 18 5 23
5 4 -1 7 3 7 9 0 5 4 8 9 4 5 -3 12 -1 16 5 4 6 11 8 16 5 5 -4 9 -2 9 4 0 5
9 12 19 16 11 3 47 34 80 67 34 34 61 58 61 54 0 -8 89 94 91 103 4 29 10 43
23 57 9 8 16 18 16 22 0 4 10 19 23 34 12 14 30 35 39 47 9 11 24 34 33 51 8
16 19 30 23 30 5 0 19 26 32 58 13 31 31 65 42 75 10 10 18 21 18 25 0 4 12
15 26 25 13 10 24 15 23 10 -1 -4 -1 -13 0 -20 2 -18 51 9 57 32 4 15 14 20
40 21 20 0 40 7 45 15 5 8 9 10 9 5 0 -5 8 -2 18 7 10 10 22 14 27 10 4 -5 5
-3 1 4 -4 7 5 18 24 28 16 8 31 14 32 13 2 -2 19 6 38 18 53 31 270 235 270
253 0 6 9 15 19 21 11 5 23 20 27 32 4 13 15 30 25 39 17 15 39 99 26 99 -4 0
-14 -14 -23 -32 -9 -18 -23 -38 -30 -46 -8 -7 -14 -18 -14 -24 0 -5 -11 -24
-25 -42 -14 -17 -34 -41 -43 -53 -9 -12 -23 -22 -30 -23 -7 0 -11 -4 -8 -8 3
-5 -7 -17 -22 -28 -14 -10 -34 -26 -43 -36 -10 -9 -20 -14 -23 -11 -3 4 -6 2
-6 -4 0 -6 -33 -33 -72 -59 -40 -27 -75 -52 -76 -57 -2 -4 -8 -5 -13 -1 -5 3
-9 1 -9 -3 0 -5 -29 -25 -64 -43 -37 -20 -67 -43 -70 -54 -4 -16 -8 -17 -20
-7 -9 8 -23 10 -33 6 -33 -14 -45 -15 -34 -1 6 7 8 16 4 19 -3 4 -1 7 5 7 7 0
11 3 10 8 -3 15 48 127 69 149 6 7 15 23 19 36 3 12 15 33 24 47 10 14 18 27
17 30 0 12 43 88 67 115 14 17 26 33 26 38 0 4 11 26 26 48 14 22 33 55 44 73
10 18 24 44 32 57 7 13 17 27 21 30 10 7 -51 72 -80 87 -10 5 -24 7 -31 5z
m-302 -543 c0 -5 -4 -10 -10 -10 -5 0 -10 5 -10 10 0 6 5 10 10 10 6 0 10 -4
10 -10z m-140 -400 c0 -5 -2 -10 -4 -10 -3 0 -8 5 -11 10 -3 6 -1 10 4 10 6 0
11 -4 11 -10z m-160 -280 c0 -5 -5 -10 -11 -10 -5 0 -7 5 -4 10 3 6 8 10 11
10 2 0 4 -4 4 -10z m-153 -152 c-3 -8 -6 -5 -6 6 -1 11 2 17 5 13 3 -3 4 -12
1 -19z"/>
<path d="M4041 3052 c-6 -11 -8 -22 -5 -24 2 -3 -18 -59 -46 -124 -28 -65 -52
-123 -53 -129 -1 -5 -4 -12 -7 -15 -10 -10 -30 -50 -30 -59 0 -5 -5 -22 -12
-38 -6 -15 -11 -31 -10 -35 1 -5 -3 -8 -9 -8 -5 0 -8 -4 -4 -9 3 -5 1 -12 -5
-16 -6 -4 -8 -11 -5 -16 4 -5 2 -9 -4 -9 -5 0 -15 -16 -22 -35 -7 -19 -17 -35
-22 -35 -4 0 -5 -4 -2 -10 3 -5 2 -10 -3 -10 -5 0 -15 -15 -22 -32 -6 -18 -19
-51 -28 -73 -10 -21 -17 -42 -18 -45 -5 -31 -44 -58 -44 -30 0 6 -7 10 -15 10
-8 0 -15 5 -15 11 0 5 -4 8 -10 4 -13 -8 -1 -37 26 -59 24 -20 24 -19 -12 -86
-10 -19 -16 -35 -15 -35 2 0 -10 -30 -28 -66 -17 -37 -34 -79 -37 -95 -3 -16
-9 -33 -13 -39 -11 -13 -46 -118 -43 -127 1 -5 -3 -8 -8 -8 -6 0 -10 -9 -10
-19 0 -11 -5 -23 -10 -26 -7 -4 -6 -14 2 -28 11 -22 57 -66 67 -65 3 0 8 0 11
-2 22 -8 50 -8 50 0 0 6 7 10 16 10 11 0 14 5 9 18 -16 38 -15 72 1 97 9 14
13 25 10 25 -4 0 0 13 9 30 8 16 15 31 15 32 -4 13 14 88 21 88 7 0 22 34 24
53 0 4 5 11 11 15 15 10 40 57 25 48 -16 -10 -14 6 5 32 8 12 12 22 7 22 -4 0
-2 4 5 9 7 4 14 17 15 29 1 16 6 20 27 16 14 -2 41 -6 60 -10 47 -7 96 -5 145
7 22 6 46 11 53 11 6 1 12 5 12 9 0 5 6 6 14 3 7 -3 16 2 19 10 4 9 13 16 21
16 8 0 16 4 18 8 2 4 25 25 52 45 27 20 46 37 42 37 -3 0 2 9 12 19 28 32 35
43 85 139 27 51 45 92 41 92 -5 0 -3 5 4 12 7 7 12 20 12 30 0 10 9 27 20 38
10 10 15 22 11 25 -5 2 -3 22 5 43 7 22 14 50 16 63 2 13 7 29 11 36 4 6 3 15
-3 18 -7 4 -7 12 -2 18 7 10 9 71 3 80 -2 1 -4 12 -7 25 -6 35 -26 50 -62 47
-18 -2 -32 0 -32 4 0 4 -9 7 -21 8 -14 1 -48 -26 -107 -88 -48 -49 -97 -102
-109 -117 -33 -39 -98 -110 -83 -89 7 9 9 17 4 17 -5 0 -4 4 2 8 7 4 19 23 28
42 9 19 25 49 36 65 48 73 68 120 59 142 -9 26 -53 51 -103 58 -28 5 -37 2
-45 -13z m305 -119 c-3 -7 -2 -13 2 -13 8 0 5 -114 -4 -150 -4 -14 -8 -32 -10
-40 -6 -36 -14 -62 -39 -123 -14 -37 -25 -73 -23 -81 3 -16 -8 -29 -116 -137
-67 -66 -177 -135 -202 -125 -7 3 -16 2 -18 -3 -3 -4 -29 -8 -58 -9 -29 0 -48
2 -41 4 7 3 10 11 7 18 -3 7 4 21 16 31 11 10 20 25 20 34 1 9 14 39 30 66 23
41 33 50 54 48 31 -2 34 5 5 15 l-20 8 20 26 c11 14 17 28 14 32 -3 3 -1 6 5
6 6 0 28 25 48 57 20 31 41 62 47 68 7 7 28 32 47 55 19 24 49 58 65 75 59 63
90 100 87 105 -2 3 6 14 17 26 22 23 55 28 47 7z"/>
<path d="M2340 3010 c-41 -7 -80 -27 -97 -49 -7 -9 -13 -13 -13 -8 0 18 -150
-158 -150 -177 0 -3 -13 -28 -30 -56 -16 -27 -27 -50 -24 -50 4 0 1 -6 -5 -13
-6 -8 -8 -17 -4 -20 3 -4 1 -7 -5 -7 -8 0 -43 -73 -48 -102 -1 -5 -2 -9 -4
-10 -1 -2 -3 -11 -6 -20 -2 -10 -6 -26 -8 -35 -3 -10 -5 -23 -5 -29 -1 -7 -55
-67 -120 -133 -119 -121 -120 -122 -114 -84 3 21 10 41 15 44 6 3 9 8 8 10 -4
10 13 59 21 59 5 0 8 3 7 8 -4 13 23 82 31 78 4 -3 7 3 8 13 1 10 8 35 17 55
8 20 15 39 15 41 1 3 12 26 26 53 14 26 25 53 25 59 0 7 4 13 8 13 4 0 16 25
26 55 11 30 27 63 38 74 10 11 18 24 18 28 0 4 11 30 25 57 30 63 23 78 -50
101 -44 13 -62 15 -81 6 -13 -6 -24 -14 -25 -18 0 -5 -3 -19 -5 -33 -3 -14 -4
-36 -4 -49 0 -13 -4 -29 -10 -36 -5 -6 -11 -20 -13 -31 -5 -22 -12 -43 -40
-104 -11 -25 -21 -47 -21 -50 -1 -3 -9 -21 -18 -40 -15 -31 -38 -85 -43 -100
-1 -3 -7 -18 -13 -33 -7 -16 -12 -30 -12 -31 0 -2 -10 -25 -22 -52 -12 -27
-23 -52 -24 -56 -1 -5 -3 -10 -4 -13 -1 -3 -3 -8 -4 -12 -1 -5 -10 -26 -20
-48 -25 -57 -24 -95 4 -117 12 -10 30 -18 39 -18 9 0 22 -5 28 -11 25 -25 80
10 179 117 94 100 120 122 108 89 -4 -8 -1 -15 4 -15 6 0 13 -8 16 -18 8 -24
56 -74 87 -91 18 -9 44 -11 75 -7 72 8 74 9 74 18 0 4 5 8 11 8 6 0 16 6 23
13 7 6 25 21 40 32 37 27 91 78 91 87 0 3 12 19 26 36 15 16 30 39 34 51 3 11
13 21 21 21 8 0 14 9 14 20 0 11 5 20 11 20 5 0 7 5 4 10 -4 6 -1 17 5 25 10
12 9 15 -4 15 -9 0 -16 5 -16 10 0 6 6 10 14 10 7 0 16 14 20 30 3 18 12 30
21 30 8 0 14 -3 14 -7 -3 -19 3 -47 8 -35 2 6 10 9 16 6 8 -5 8 -2 0 6 -11 11
-5 21 30 52 l42 38 -42 -22 c-45 -23 -65 -19 -43 7 8 9 22 14 32 12 10 -3 16
-1 13 3 -3 5 -1 11 5 15 18 11 11 23 -10 18 -11 -3 -20 -9 -20 -13 0 -4 -17
-19 -37 -33 -21 -15 -37 -31 -37 -35 2 -11 -33 -52 -45 -52 -6 0 -11 -7 -11
-15 0 -8 -4 -15 -10 -15 -5 0 -10 -5 -10 -11 0 -6 -9 -22 -20 -36 -11 -14 -20
-23 -20 -19 0 3 -39 -34 -87 -83 -106 -107 -189 -155 -220 -129 -19 15 -16
100 6 157 10 28 16 52 13 55 -3 4 0 6 6 6 7 0 12 4 12 9 0 12 27 70 54 116 25
42 35 45 111 34 18 -2 29 0 28 7 -1 6 25 20 58 30 32 10 59 22 59 26 0 4 -15
12 -32 17 -18 5 -26 10 -17 10 21 1 72 58 93 104 9 20 25 45 35 55 10 9 20 24
24 33 8 25 -27 57 -70 64 -21 3 -45 7 -53 9 -8 1 -31 -1 -50 -4z m25 -150
c-16 -16 -25 -30 -20 -30 13 0 -48 -52 -87 -74 l-33 -20 28 37 c16 21 47 55
70 77 50 47 85 55 42 10z"/>
<path d="M1071 2541 c-11 -11 -21 -30 -21 -42 0 -11 -7 -27 -15 -36 -18 -18
-11 -33 16 -33 13 0 20 6 18 18 -3 31 1 42 15 42 17 0 28 38 17 58 -7 12 -12
11 -30 -7z"/>
<path d="M1005 2401 c-3 -17 -11 -31 -15 -31 -5 0 -12 -17 -16 -37 -3 -21 -16
-48 -27 -60 -11 -13 -17 -23 -13 -23 4 0 2 -8 -3 -18 -6 -11 -6 -24 -1 -32 11
-18 19 -10 25 21 3 13 12 29 20 35 8 6 15 16 15 23 0 6 4 11 10 11 5 0 6 8 3
17 -5 12 -2 15 9 11 10 -4 14 0 13 15 -1 12 5 29 13 37 14 13 14 15 -1 18 -10
2 -15 7 -13 11 3 4 1 13 -4 20 -5 10 -10 4 -15 -18z"/>
<path d="M894 2162 c3 -2 1 -14 -4 -27 -7 -17 -5 -25 6 -29 26 -10 31 -7 28
17 -1 12 -3 27 -3 33 -1 6 -8 11 -16 11 -8 0 -13 -2 -11 -5z"/>
<path d="M880 2092 c0 -4 -8 -17 -17 -28 -10 -11 -19 -26 -21 -34 -2 -8 -9
-28 -17 -45 -7 -16 -24 -55 -38 -85 -14 -30 -35 -67 -48 -83 -24 -28 -26 -34
-34 -106 -2 -24 -9 -49 -15 -56 -10 -12 -15 -28 -24 -73 -1 -8 -7 -17 -12 -20
-5 -4 -9 -22 -9 -40 1 -18 -5 -36 -12 -40 -15 -9 -33 -96 -23 -112 10 -16 40
27 33 46 -3 8 0 14 7 14 6 0 9 4 5 9 -3 5 -1 12 4 16 5 3 8 14 6 24 -2 11 2
22 10 25 7 2 16 23 20 45 4 23 11 41 16 41 6 0 8 3 5 8 -2 4 2 15 9 25 11 16
14 16 28 2 9 -8 20 -15 26 -15 6 0 11 -4 11 -8 0 -8 98 -39 148 -48 15 -3 36
-8 47 -11 24 -8 31 -10 48 -12 26 -3 60 -39 63 -67 3 -32 -16 -58 -59 -81 -30
-15 -176 -20 -186 -6 -3 4 -15 9 -26 11 -11 2 -40 12 -64 23 -24 11 -44 19
-45 17 -19 -26 -36 -54 -36 -59 0 -4 23 -19 50 -33 28 -14 50 -24 50 -21 0 3
15 -1 33 -8 45 -19 206 -20 242 -1 15 8 33 14 40 14 17 0 75 66 75 85 0 8 3
15 8 15 4 0 7 16 7 35 0 19 -3 35 -8 35 -4 0 -6 3 -6 8 3 17 -2 30 -18 49 -16
18 -74 53 -98 60 -5 1 -30 7 -55 13 -25 7 -52 14 -60 17 -15 6 -55 13 -77 15
-7 1 -13 5 -13 10 0 4 -5 8 -11 8 -18 0 -43 32 -45 57 -2 38 49 81 94 78 12
-1 22 2 22 6 0 4 17 5 38 2 66 -8 76 -11 141 -39 37 -16 57 -8 71 31 6 17 1
23 -34 39 -41 20 -60 26 -83 28 -7 1 -13 4 -13 8 0 12 -174 9 -188 -3 -20 -16
-11 33 12 68 10 15 18 43 19 61 1 19 4 34 9 34 17 0 26 35 12 48 -8 7 -14 9
-14 4z"/>
<path d="M2002 1857 c-18 -34 -49 -91 -68 -127 -93 -168 -122 -228 -116 -236
4 -4 2 -4 -5 0 -7 4 -14 -3 -19 -16 -3 -13 -22 -49 -40 -80 -18 -32 -31 -58
-27 -58 3 0 -2 -9 -12 -20 -21 -23 -22 -22 31 -24 22 -1 46 4 53 11 6 7 8 13
4 13 -4 0 -3 4 2 8 6 4 21 28 34 55 13 26 27 47 30 48 9 1 314 1 334 0 10 -1
15 -5 12 -11 -3 -5 -3 -10 2 -10 4 0 19 -25 32 -55 14 -30 32 -57 40 -59 20
-6 76 -3 76 4 -2 12 -71 145 -77 148 -5 2 -8 12 -8 23 0 10 -4 19 -10 19 -5 0
-10 6 -10 14 0 7 -9 25 -21 40 -11 14 -17 26 -14 26 4 0 3 6 -2 13 -10 11 -30
49 -138 252 -20 39 -40 73 -44 77 -4 5 -21 -20 -39 -55z m108 -239 l58 -113
-124 1 c-68 0 -126 3 -129 6 -3 3 19 52 50 108 30 57 55 105 55 107 0 2 6 10
13 17 10 12 13 12 15 0 2 -8 30 -65 62 -126z"/>
<path d="M2633 1890 c-18 -4 -33 -5 -33 -3 0 3 -7 0 -15 -7 -8 -7 -15 -10 -15
-6 0 9 -58 -22 -96 -51 -67 -51 -112 -153 -109 -248 2 -52 5 -63 36 -131 17
-36 99 -126 99 -108 0 4 8 0 18 -8 9 -8 32 -20 50 -26 45 -15 201 -10 232 8
14 8 28 13 32 12 3 -1 26 16 50 38 l43 39 -29 24 -30 24 -48 -34 c-26 -19 -48
-32 -48 -28 0 4 -7 2 -15 -5 -24 -20 -129 -15 -177 8 -53 25 -95 65 -112 107
-34 81 -17 192 38 246 37 37 94 66 124 64 12 -1 22 2 22 6 0 23 131 -15 179
-52 30 -24 40 -23 70 2 23 19 23 20 5 40 -20 22 -94 69 -116 73 -7 2 -24 6
-38 9 -46 12 -85 14 -117 7z"/>
<path d="M1287 1875 c-2 -5 -3 -27 -2 -47 1 -21 -3 -38 -9 -38 -8 0 -8 -3 -1
-8 12 -8 13 -41 3 -58 -4 -6 -4 -14 0 -18 11 -12 9 -76 -2 -76 -8 0 -8 -3 -1
-8 12 -8 13 -41 3 -58 -4 -6 -4 -14 0 -18 11 -12 9 -76 -2 -76 -8 0 -8 -3 -1
-8 12 -8 13 -41 2 -59 -4 -6 -3 -14 2 -17 10 -7 7 -58 -4 -76 -5 -9 -4 -11 3
-6 7 4 12 3 12 -2 0 -7 38 -9 71 -3 4 0 6 44 5 97 -1 52 1 99 4 103 3 4 48 7
100 7 186 -1 252 30 283 133 15 49 6 129 -16 143 -6 4 -8 8 -3 8 28 0 -71 77
-114 88 -36 9 -330 7 -333 -3z m333 -82 c34 -14 55 -56 54 -109 -1 -36 -7 -48
-30 -66 -36 -29 -39 -29 -166 -32 -70 -1 -108 2 -109 9 -1 14 -1 176 0 196 1
14 16 16 114 14 61 -1 123 -6 137 -12z"/>
<path d="M3010 1590 l0 -295 229 0 229 0 4 27 c3 15 1 33 -2 39 -5 7 -68 11
-193 11 l-185 0 -1 99 c-1 88 1 99 17 100 9 0 70 1 135 1 70 1 120 5 124 12
10 15 10 57 0 63 -4 3 -69 5 -143 5 l-134 0 0 77 0 78 186 -1 c175 -1 187 0
194 18 3 11 5 29 3 40 -4 21 -8 21 -234 21 l-229 0 0 -295z"/>
<path d="M579 1332 c-7 -15 -14 -29 -15 -32 -2 -3 8 -7 22 -8 20 -1 24 3 24
28 0 39 -14 45 -31 12z"/>
</g>
</svg>
